<svg xmlns="http://www.w3.org/2000/svg" version="1.1" xmlns:xlink="http://www.w3.org/1999/xlink" xmlns:svgjs="http://svgjs.dev/svgjs" width="1000" height="1001"><svg width="1000" height="1001" viewBox="0 0 1000 1001" fill="none" xmlns="http://www.w3.org/2000/svg">
<path d="M838.896 146.153L896.632 170.282C941.012 188.378 961.263 238.79 943.597 282.739L838.896 535.229V146.153Z" fill="currentColor"></path>
<path fill-rule="evenodd" clip-rule="evenodd" d="M270.147 844.594L56.4352 329.704C47.8134 308.62 47.9175 284.975 56.7244 263.967C65.5314 242.96 82.3203 226.31 103.4 217.678L420.521 86.2621C431.292 82.3843 442.495 79.7991 453.698 79.7991C470.607 79.8861 487.097 85.0733 501.011 94.6824C514.925 104.291 525.615 117.875 531.685 133.658L747.12 648.548C750.998 659.751 753.153 672.246 752.722 683.448C751.86 715.333 732.04 747.217 699.725 760.574L382.173 891.99C370.971 896.729 359.337 898.884 348.134 898.884C331.258 898.421 314.886 893.035 301.03 883.39C287.174 873.744 276.44 860.26 270.147 844.594ZM252.487 659.035L282.31 509.894L422.721 617.478L260.703 666.221C256.16 667.569 251.758 663.723 252.487 659.035ZM257.519 501.051L239.736 615.74C239.233 618.966 234.824 619.504 233.562 616.503L182.607 495.243C181.634 492.927 183.558 490.435 186.047 490.792L257.519 501.051ZM453.887 697.359L281.664 692.912C278.042 692.699 277.462 687.606 280.933 686.586L439.515 639.488L460.068 688.399C461.893 692.741 458.601 697.525 453.887 697.359ZM276.272 344.022L261.477 475.499L185.515 464.752C183.163 464.408 181.964 461.722 183.296 459.743L264.757 339.099C268.825 333.787 277.295 337.405 276.272 344.022ZM450.668 404.919L287.99 473.279L306.479 317.956C307.22 313.193 310.336 309.658 314.246 308.015C318.156 306.372 322.861 306.62 326.782 309.424L450.668 404.919ZM491.834 402.596L534.522 344.357C536.01 342.33 539.135 342.699 540.109 345.015L591.064 466.275C592.329 469.284 588.851 472.06 586.202 470.158L491.834 402.596ZM516.291 325.746L470.809 387.534L366.541 306.089C361.099 302.19 364.442 293.608 371.084 294.419L514.265 320.656C516.612 321.089 517.699 323.822 516.291 325.746ZM463.346 629.466L607.973 549.158C611.13 547.393 614.362 551.372 611.977 554.1L494.624 680.232C491.444 683.715 485.726 682.726 483.899 678.377L463.346 629.466ZM459.388 602.071L480.798 426.487L608.208 509.555C612.067 512.315 611.73 518.144 607.591 520.453L459.388 602.071ZM304.545 494.364L454.144 431.5L434.35 593.83L304.545 494.364Z" fill="currentColor"></path>
<path d="M727.051 105.039C743.212 121.2 752.291 143.118 752.291 165.973V439.145L603.641 79.7991H666.117C688.972 79.7991 710.89 88.8781 727.051 105.039Z" fill="currentColor"></path>
</svg><style>@media (prefers-color-scheme: light) { :root { filter: none; } }
@media (prefers-color-scheme: dark) { :root { filter: none; } }

path {
    color: #AAF183;
}
</style></svg>