<svg width="400" height="401" viewBox="0 0 400 401" fill="none" xmlns="http://www.w3.org/2000/svg">
<path fill-rule="evenodd" clip-rule="evenodd" d="M348.281 45.6105L373.543 56.1678C392.961 64.0858 401.822 86.1431 394.092 105.372L348.281 215.847V45.6105ZM99.4297 351.207L5.92203 125.922C2.14966 116.696 2.19518 106.351 6.04858 97.1591C9.90198 87.9675 17.2478 80.6824 26.4711 76.9054L165.224 19.4057C169.938 17.709 174.839 16.5779 179.741 16.5779C187.139 16.6159 194.354 18.8855 200.442 23.0899C206.53 27.2943 211.208 33.2378 213.864 40.1433L308.125 265.429C309.822 270.331 310.765 275.798 310.576 280.699C310.199 294.65 301.527 308.601 287.388 314.445L148.446 371.945C143.544 374.019 138.454 374.961 133.553 374.961C126.169 374.759 119.005 372.402 112.942 368.182C106.88 363.962 102.183 358.062 99.4297 351.207ZM299.344 27.6213C306.415 34.6923 310.388 44.2827 310.388 54.2826V173.807L245.347 16.5779H272.683C282.683 16.5779 292.273 20.5503 299.344 27.6213ZM91.7027 269.22L104.752 203.965L166.187 251.037L95.2976 272.364C93.3101 272.954 91.3837 271.271 91.7027 269.22ZM93.9044 200.095L86.1235 250.277C85.9037 251.688 83.9744 251.924 83.4225 250.61L61.1274 197.554C60.7016 196.541 61.5434 195.451 62.6326 195.607L93.9044 200.095ZM179.824 285.988L104.469 284.043C102.884 283.949 102.63 281.721 104.149 281.275L173.535 260.668L182.528 282.068C183.327 283.968 181.886 286.061 179.824 285.988ZM102.11 131.389L95.6364 188.915L62.3999 184.213C61.3706 184.063 60.846 182.888 61.4291 182.021L97.0713 129.235C98.8515 126.911 102.557 128.494 102.11 131.389ZM178.415 158.034L142.826 172.989L107.237 187.944L115.327 119.984C115.651 117.9 117.014 116.353 118.725 115.634C120.436 114.915 122.494 115.024 124.21 116.251L178.415 158.034ZM196.427 157.017L215.105 131.535C215.756 130.648 217.123 130.81 217.549 131.823L239.844 184.88C240.398 186.196 238.876 187.411 237.717 186.579L196.427 157.017ZM207.128 123.392L187.228 150.427L141.606 114.792C139.225 113.085 140.688 109.33 143.594 109.685L206.242 121.165C207.269 121.355 207.744 122.55 207.128 123.392ZM183.962 256.282L247.242 221.144C248.624 220.372 250.038 222.113 248.995 223.307L197.648 278.494C196.256 280.019 193.755 279.586 192.955 277.683L183.962 256.282ZM182.23 244.296L191.598 167.47L247.346 203.816C249.034 205.024 248.886 207.574 247.076 208.585L182.23 244.296ZM114.48 197.17L147.208 183.417L179.936 169.664L171.275 240.69L114.48 197.17Z" fill="#AAF183"/>
</svg>
